<svg width="24" height="25" viewBox="0 0 24 25" fill="none" xmlns="http://www.w3.org/2000/svg">
<g id="vuesax/linear/book">
<g id="book">
<path id="Vector" d="M22 16.769V4.699C22 3.499 21.02 2.609 19.83 2.709H19.77C17.67 2.889 14.48 3.959 12.7 5.079L12.53 5.189C12.24 5.369 11.76 5.369 11.47 5.189L11.22 5.039C9.44 3.929 6.26 2.869 4.16 2.699C2.97 2.599 2 3.499 2 4.689V16.769C2 17.729 2.78 18.629 3.74 18.749L4.03 18.789C6.2 19.079 9.55 20.179 11.47 21.229L11.51 21.249C11.78 21.399 12.21 21.399 12.47 21.249C14.39 20.189 17.75 19.079 19.93 18.789L20.26 18.749C21.22 18.629 22 17.729 22 16.769Z" stroke="white" stroke-width="1.5" stroke-linecap="round" stroke-linejoin="round"/>
<path id="Vector_2" d="M12 5.51904V20.519" stroke="white" stroke-width="1.5" stroke-linecap="round" stroke-linejoin="round"/>
<path id="Vector_3" d="M7.75 8.51904H5.5" stroke="white" stroke-width="1.5" stroke-linecap="round" stroke-linejoin="round"/>
<path id="Vector_4" d="M8.5 11.519H5.5" stroke="white" stroke-width="1.5" stroke-linecap="round" stroke-linejoin="round"/>
</g>
</g>
</svg>
