<svg width="24" height="20" viewBox="0 0 24 20" fill="none" xmlns="http://www.w3.org/2000/svg">
<g id="Vector" filter="url(#filter0_d_902_2387)">
<path d="M4 2C4 1.46957 4.21071 0.960859 4.58579 0.585786C4.96086 0.210714 5.46957 0 6 0H18C18.5304 0 19.0391 0.210714 19.4142 0.585786C19.7893 0.960859 20 1.46957 20 2V10C20 10.5304 19.7893 11.0391 19.4142 11.4142C19.0391 11.7893 18.5304 12 18 12H6C5.46957 12 4.96086 11.7893 4.58579 11.4142C4.21071 11.0391 4 10.5304 4 10V2ZM6.5 3C6.36739 3 6.24021 3.05268 6.14645 3.14645C6.05268 3.24021 6 3.36739 6 3.5V4.5C6 4.63261 6.05268 4.75979 6.14645 4.85355C6.24021 4.94732 6.36739 5 6.5 5H8.5C8.63261 5 8.75979 4.94732 8.85355 4.85355C8.94732 4.75979 9 4.63261 9 4.5V3.5C9 3.36739 8.94732 3.24021 8.85355 3.14645C8.75979 3.05268 8.63261 3 8.5 3H6.5ZM6.5 6C6.36739 6 6.24021 6.05268 6.14645 6.14645C6.05268 6.24021 6 6.36739 6 6.5C6 6.63261 6.05268 6.75979 6.14645 6.85355C6.24021 6.94732 6.36739 7 6.5 7H11.5C11.6326 7 11.7598 6.94732 11.8536 6.85355C11.9473 6.75979 12 6.63261 12 6.5C12 6.36739 11.9473 6.24021 11.8536 6.14645C11.7598 6.05268 11.6326 6 11.5 6H6.5ZM6.5 8C6.36739 8 6.24021 8.05268 6.14645 8.14645C6.05268 8.24021 6 8.36739 6 8.5C6 8.63261 6.05268 8.75979 6.14645 8.85355C6.24021 8.94732 6.36739 9 6.5 9H7.5C7.63261 9 7.75979 8.94732 7.85355 8.85355C7.94732 8.75979 8 8.63261 8 8.5C8 8.36739 7.94732 8.24021 7.85355 8.14645C7.75979 8.05268 7.63261 8 7.5 8H6.5ZM9.5 8C9.36739 8 9.24021 8.05268 9.14645 8.14645C9.05268 8.24021 9 8.36739 9 8.5C9 8.63261 9.05268 8.75979 9.14645 8.85355C9.24021 8.94732 9.36739 9 9.5 9H10.5C10.6326 9 10.7598 8.94732 10.8536 8.85355C10.9473 8.75979 11 8.63261 11 8.5C11 8.36739 10.9473 8.24021 10.8536 8.14645C10.7598 8.05268 10.6326 8 10.5 8H9.5ZM12.5 8C12.3674 8 12.2402 8.05268 12.1464 8.14645C12.0527 8.24021 12 8.36739 12 8.5C12 8.63261 12.0527 8.75979 12.1464 8.85355C12.2402 8.94732 12.3674 9 12.5 9H13.5C13.6326 9 13.7598 8.94732 13.8536 8.85355C13.9473 8.75979 14 8.63261 14 8.5C14 8.36739 13.9473 8.24021 13.8536 8.14645C13.7598 8.05268 13.6326 8 13.5 8H12.5ZM15.5 8C15.3674 8 15.2402 8.05268 15.1464 8.14645C15.0527 8.24021 15 8.36739 15 8.5C15 8.63261 15.0527 8.75979 15.1464 8.85355C15.2402 8.94732 15.3674 9 15.5 9H16.5C16.6326 9 16.7598 8.94732 16.8536 8.85355C16.9473 8.75979 17 8.63261 17 8.5C17 8.36739 16.9473 8.24021 16.8536 8.14645C16.7598 8.05268 16.6326 8 16.5 8H15.5Z" fill="white"/>
</g>
<defs>
<filter id="filter0_d_902_2387" x="0" y="0" width="24" height="20" filterUnits="userSpaceOnUse" color-interpolation-filters="sRGB">
<feFlood flood-opacity="0" result="BackgroundImageFix"/>
<feColorMatrix in="SourceAlpha" type="matrix" values="0 0 0 0 0 0 0 0 0 0 0 0 0 0 0 0 0 0 127 0" result="hardAlpha"/>
<feOffset dy="4"/>
<feGaussianBlur stdDeviation="2"/>
<feComposite in2="hardAlpha" operator="out"/>
<feColorMatrix type="matrix" values="0 0 0 0 0 0 0 0 0 0 0 0 0 0 0 0 0 0 0.25 0"/>
<feBlend mode="normal" in2="BackgroundImageFix" result="effect1_dropShadow_902_2387"/>
<feBlend mode="normal" in="SourceGraphic" in2="effect1_dropShadow_902_2387" result="shape"/>
</filter>
</defs>
</svg>
