<svg width="24" height="24" viewBox="0 0 24 24" fill="none" xmlns="http://www.w3.org/2000/svg">
<g id="Vector" filter="url(#filter0_d_902_2377)">
<path d="M16.4455 15.9959C16.3173 15.9964 16.1908 15.9647 16.0767 15.9033L11.988 13.6559L7.89924 15.9033C7.76647 15.9766 7.61677 16.0093 7.46717 15.9977C7.31757 15.9861 7.17407 15.9307 7.05297 15.8378C6.93187 15.7449 6.83804 15.6181 6.78214 15.472C6.72624 15.3258 6.71052 15.1661 6.73675 15.0111L7.53847 10.2723L4.23541 6.90545C4.13235 6.79748 4.05925 6.66208 4.02394 6.5138C3.98863 6.36551 3.99244 6.20992 4.03498 6.06374C4.08145 5.91415 4.16692 5.78123 4.28171 5.68006C4.39649 5.57889 4.53599 5.51352 4.68437 5.49138L9.25413 4.79277L11.2664 0.474815C11.3321 0.332507 11.4346 0.212491 11.5622 0.128515C11.6898 0.044539 11.8374 0 11.988 0C12.1386 0 12.2861 0.044539 12.4138 0.128515C12.5414 0.212491 12.6439 0.332507 12.7095 0.474815L14.7459 4.78435L19.3156 5.48296C19.464 5.50511 19.6035 5.57047 19.7183 5.67164C19.8331 5.77281 19.9186 5.90573 19.965 6.05532C20.0076 6.20151 20.0114 6.35709 19.9761 6.50538C19.9408 6.65367 19.8676 6.78906 19.7646 6.89703L16.4615 10.2639L17.2632 15.0027C17.2919 15.1605 17.2769 15.3236 17.2201 15.4727C17.1632 15.6219 17.0669 15.7508 16.9426 15.8444C16.7974 15.9512 16.6226 16.0045 16.4455 15.9959Z" fill="white"/>
</g>
<defs>
<filter id="filter0_d_902_2377" x="0" y="0" width="24" height="24" filterUnits="userSpaceOnUse" color-interpolation-filters="sRGB">
<feFlood flood-opacity="0" result="BackgroundImageFix"/>
<feColorMatrix in="SourceAlpha" type="matrix" values="0 0 0 0 0 0 0 0 0 0 0 0 0 0 0 0 0 0 127 0" result="hardAlpha"/>
<feOffset dy="4"/>
<feGaussianBlur stdDeviation="2"/>
<feComposite in2="hardAlpha" operator="out"/>
<feColorMatrix type="matrix" values="0 0 0 0 0 0 0 0 0 0 0 0 0 0 0 0 0 0 0.25 0"/>
<feBlend mode="normal" in2="BackgroundImageFix" result="effect1_dropShadow_902_2377"/>
<feBlend mode="normal" in="SourceGraphic" in2="effect1_dropShadow_902_2377" result="shape"/>
</filter>
</defs>
</svg>
