<svg width="24" height="24" viewBox="0 0 24 24" fill="none" xmlns="http://www.w3.org/2000/svg">
<g id="Vector" filter="url(#filter0_d_902_2382)">
<path d="M11.2267 7.48L10.768 5.768C11.2533 5.648 12.6607 5.06733 13.028 6.10533C13.208 7.22667 11.7093 7.35667 11.2267 7.48ZM11.4193 8.35533L11.9227 10.2413C12.5013 10.0893 14.2533 9.93467 14.0833 8.674C13.7947 7.56333 12 8.20333 11.4193 8.35533ZM20 8C20 12.418 16.418 16 12 16C7.582 16 4 12.418 4 8C4 3.582 7.582 0 12 0C16.418 0 20 3.582 20 8ZM15.7727 8.44067C15.6507 7.67333 14.812 7.044 14.116 6.97267C14.5447 6.59267 14.762 6.03867 14.496 5.314C14.094 4.402 13.17 4.20733 12.0393 4.396L11.6753 2.98667L10.8187 3.208L11.176 4.61333C10.9507 4.67 10.7193 4.71867 10.49 4.784L10.132 3.38667L9.27533 3.608L9.63867 5.01733C9.454 5.07 7.90867 5.466 7.90867 5.466L8.144 6.384C8.144 6.384 8.77333 6.20733 8.76733 6.22133C9.11667 6.13 9.28133 6.30467 9.358 6.46933L10.3567 10.3313C10.3687 10.4433 10.3487 10.634 10.1087 10.6987C10.1227 10.7067 9.48533 10.8593 9.48533 10.8593L9.57867 11.9293C9.57867 11.9293 11.1093 11.5373 11.3107 11.4867L11.678 12.912L12.5347 12.6907L12.1673 11.2553C12.4027 11.2007 12.632 11.1433 12.8553 11.0847L13.2207 12.512L14.0773 12.2907L13.71 10.8673C15.0313 10.546 15.9633 9.714 15.7727 8.44067Z" fill="white"/>
</g>
<defs>
<filter id="filter0_d_902_2382" x="0" y="0" width="24" height="24" filterUnits="userSpaceOnUse" color-interpolation-filters="sRGB">
<feFlood flood-opacity="0" result="BackgroundImageFix"/>
<feColorMatrix in="SourceAlpha" type="matrix" values="0 0 0 0 0 0 0 0 0 0 0 0 0 0 0 0 0 0 127 0" result="hardAlpha"/>
<feOffset dy="4"/>
<feGaussianBlur stdDeviation="2"/>
<feComposite in2="hardAlpha" operator="out"/>
<feColorMatrix type="matrix" values="0 0 0 0 0 0 0 0 0 0 0 0 0 0 0 0 0 0 0.25 0"/>
<feBlend mode="normal" in2="BackgroundImageFix" result="effect1_dropShadow_902_2382"/>
<feBlend mode="normal" in="SourceGraphic" in2="effect1_dropShadow_902_2382" result="shape"/>
</filter>
</defs>
</svg>
