<svg width="22" height="21" viewBox="0 0 22 21" fill="none" xmlns="http://www.w3.org/2000/svg">
<g id="Vector" filter="url(#filter0_d_902_2372)">
<path d="M18 0.552306C18 0.405825 17.9418 0.265344 17.8382 0.161767C17.7347 0.0581891 17.5942 0 17.4477 0C17.3012 0 17.1607 0.0581891 17.0572 0.161767C16.9536 0.265344 16.8954 0.405825 16.8954 0.552306V3.05609C16.0456 2.03396 14.9439 1.16868 13.5609 0.74009C11.8188 0.195781 9.94527 0.245514 8.23449 0.88148C6.52897 1.51626 4.91771 2.80351 4.07674 4.33744C4.03909 4.4012 4.01464 4.47187 4.00485 4.54526C3.99506 4.61865 4.00013 4.69326 4.01975 4.76465C4.03937 4.83604 4.07314 4.90276 4.11906 4.96084C4.16499 5.01892 4.22212 5.06717 4.28706 5.10273C4.352 5.13829 4.42343 5.16043 4.4971 5.16783C4.57077 5.17523 4.64518 5.16774 4.71589 5.14581C4.78661 5.12388 4.8522 5.08796 4.90876 5.04017C4.96531 4.99239 5.01168 4.93372 5.04511 4.86766C5.74028 3.59956 7.12546 2.47286 8.61964 1.91687C10.1018 1.36599 11.7249 1.32325 13.234 1.79536C14.4873 2.18345 15.4955 3.02075 16.2753 4.05024H13.3975C13.251 4.05024 13.1105 4.10843 13.0069 4.21201C12.9033 4.31559 12.8451 4.45607 12.8451 4.60255C12.8451 4.74903 12.9033 4.88951 13.0069 4.99309C13.1105 5.09667 13.251 5.15486 13.3975 5.15486H17.4477C17.5942 5.15486 17.7347 5.09667 17.8382 4.99309C17.9418 4.88951 18 4.74903 18 4.60255V0.552306ZM8.05849 8.10049C7.96084 8.10049 7.86719 8.13928 7.79813 8.20833C7.72908 8.27738 7.69029 8.37104 7.69029 8.46869V11.4143C7.69029 11.512 7.72908 11.6056 7.79813 11.6747C7.86719 11.7437 7.96084 11.7825 8.05849 11.7825H13.9498C14.0474 11.7825 14.1411 11.7437 14.2101 11.6747C14.2792 11.6056 14.318 11.512 14.318 11.4143V8.46869C14.318 8.37104 14.2792 8.27738 14.2101 8.20833C14.1411 8.13928 14.0474 8.10049 13.9498 8.10049H8.05849ZM6.58568 8.46869C6.58568 8.07808 6.74085 7.70346 7.01706 7.42725C7.29326 7.15105 7.66788 6.99588 8.05849 6.99588H13.9498C14.3404 6.99588 14.715 7.15105 14.9912 7.42725C15.2674 7.70346 15.4226 8.07808 15.4226 8.46869V11.4143C15.4226 11.8049 15.2674 12.1796 14.9912 12.4558C14.715 12.732 14.3404 12.8871 13.9498 12.8871H8.05849C7.66788 12.8871 7.29326 12.732 7.01706 12.4558C6.74085 12.1796 6.58568 11.8049 6.58568 11.4143V8.46869Z" fill="white"/>
</g>
<defs>
<filter id="filter0_d_902_2372" x="0" y="0" width="22" height="20.8872" filterUnits="userSpaceOnUse" color-interpolation-filters="sRGB">
<feFlood flood-opacity="0" result="BackgroundImageFix"/>
<feColorMatrix in="SourceAlpha" type="matrix" values="0 0 0 0 0 0 0 0 0 0 0 0 0 0 0 0 0 0 127 0" result="hardAlpha"/>
<feOffset dy="4"/>
<feGaussianBlur stdDeviation="2"/>
<feComposite in2="hardAlpha" operator="out"/>
<feColorMatrix type="matrix" values="0 0 0 0 0 0 0 0 0 0 0 0 0 0 0 0 0 0 0.25 0"/>
<feBlend mode="normal" in2="BackgroundImageFix" result="effect1_dropShadow_902_2372"/>
<feBlend mode="normal" in="SourceGraphic" in2="effect1_dropShadow_902_2372" result="shape"/>
</filter>
</defs>
</svg>
