<svg width="22" height="22" viewBox="0 0 22 22" fill="none" xmlns="http://www.w3.org/2000/svg">
<g id="Vector" filter="url(#filter0_d_902_2367)">
<path fill-rule="evenodd" clip-rule="evenodd" d="M11.0009 9.30104L15.5322 13.6673C15.9868 14.1087 16.2825 14.1132 16.7454 13.6673L17.6545 12.791C18.0999 12.362 18.1301 12.0804 17.6545 11.6221L12.8572 7.00018L17.655 2.37827C18.1043 1.94387 18.1131 1.65071 17.655 1.2089L16.7458 0.333102C16.2742 -0.121472 15.9828 -0.100472 15.5326 0.333102L11.0009 4.69931L6.46959 0.333513C6.01939 -0.100061 5.72801 -0.12106 5.25638 0.333513L4.34723 1.20931C3.88872 1.65112 3.89703 1.94428 4.34723 2.37868L9.14453 7.00018L4.34723 11.6221C3.87166 12.0804 3.89703 12.362 4.34723 12.791L5.25594 13.6673C5.71489 14.1132 6.01064 14.1087 6.46916 13.6673L11.0009 9.30104Z" fill="white"/>
</g>
<defs>
<filter id="filter0_d_902_2367" x="0" y="0" width="22" height="22" filterUnits="userSpaceOnUse" color-interpolation-filters="sRGB">
<feFlood flood-opacity="0" result="BackgroundImageFix"/>
<feColorMatrix in="SourceAlpha" type="matrix" values="0 0 0 0 0 0 0 0 0 0 0 0 0 0 0 0 0 0 127 0" result="hardAlpha"/>
<feOffset dy="4"/>
<feGaussianBlur stdDeviation="2"/>
<feComposite in2="hardAlpha" operator="out"/>
<feColorMatrix type="matrix" values="0 0 0 0 0 0 0 0 0 0 0 0 0 0 0 0 0 0 0.25 0"/>
<feBlend mode="normal" in2="BackgroundImageFix" result="effect1_dropShadow_902_2367"/>
<feBlend mode="normal" in="SourceGraphic" in2="effect1_dropShadow_902_2367" result="shape"/>
</filter>
</defs>
</svg>
