<svg width="24" height="25" viewBox="0 0 24 25" fill="none" xmlns="http://www.w3.org/2000/svg">
<path fill-rule="evenodd" clip-rule="evenodd" d="M18 19.0288C16.897 19.0288 16 18.1318 16 17.0288C16 15.9258 16.897 15.0288 18 15.0288C19.103 15.0288 20 15.9258 20 17.0288C20 18.1318 19.103 19.0288 18 19.0288ZM6 15.0288C7.103 15.0288 8 15.9258 8 17.0288C8 18.1318 7.103 19.0288 6 19.0288C4.897 19.0288 4 18.1318 4 17.0288C4 15.9258 4.897 15.0288 6 15.0288ZM12 2.02881C6.486 2.02881 2 6.67881 2 12.3948V17.0288C2 19.2348 3.794 21.0288 6 21.0288C8.206 21.0288 10 19.2348 10 17.0288C10 14.8228 8.206 13.0288 6 13.0288C5.268 13.0288 4.591 13.2408 4 13.5858V12.3948C4 7.78181 7.589 4.02881 12 4.02881C16.411 4.02881 20 7.78181 20 12.3948V13.5858C19.409 13.2408 18.732 13.0288 18 13.0288C15.794 13.0288 14 14.8228 14 17.0288C14 19.2348 15.794 21.0288 18 21.0288C20.206 21.0288 22 19.2348 22 17.0288V12.3948C22 6.67881 17.514 2.02881 12 2.02881Z" fill="white"/>
</svg>
