<svg width="28" height="28" viewBox="0 0 28 28" fill="none" xmlns="http://www.w3.org/2000/svg">
<g id="fluent:live-24-regular">
<path id="Vector" d="M6.98869 5.75066C7.15255 5.91472 7.24459 6.13712 7.24459 6.36899C7.24459 6.60087 7.15255 6.82326 6.98869 6.98733C6.06781 7.90818 5.33733 9.0014 4.83895 10.2046C4.34057 11.4077 4.08406 12.6973 4.08406 13.9996C4.08406 15.3019 4.34057 16.5914 4.83895 17.7946C5.33733 18.9978 6.06781 20.091 6.98869 21.0118C7.148 21.1769 7.2361 21.398 7.234 21.6274C7.23189 21.8568 7.13977 22.0763 6.97746 22.2384C6.81515 22.4006 6.59564 22.4925 6.36622 22.4944C6.1368 22.4963 5.91581 22.408 5.75086 22.2485C1.19503 17.6927 1.19503 10.3065 5.75086 5.75066C5.91492 5.5868 6.13732 5.49476 6.36919 5.49476C6.60107 5.49476 6.82346 5.5868 6.98753 5.75066H6.98869ZM22.2499 5.75066C26.8057 10.3065 26.8057 17.6927 22.2499 22.2497C22.084 22.4042 21.8646 22.4884 21.6379 22.4844C21.4112 22.4804 21.195 22.3885 21.0346 22.2282C20.8743 22.0679 20.7825 21.8516 20.7785 21.6249C20.7745 21.3983 20.8586 21.1789 21.0132 21.013C21.9342 20.0921 22.6649 18.9988 23.1634 17.7956C23.6618 16.5923 23.9184 15.3026 23.9184 14.0002C23.9184 12.6977 23.6618 11.408 23.1634 10.2048C22.6649 9.00149 21.9342 7.9082 21.0132 6.98733C20.9272 6.90722 20.8583 6.81062 20.8104 6.70329C20.7626 6.59596 20.7369 6.48009 20.7348 6.3626C20.7328 6.24512 20.7544 6.12842 20.7984 6.01946C20.8424 5.91051 20.9079 5.81154 20.991 5.72845C21.0741 5.64536 21.173 5.57986 21.282 5.53585C21.3909 5.49184 21.5076 5.47023 21.6251 5.4723C21.7426 5.47438 21.8585 5.50009 21.9658 5.54792C22.0732 5.59574 22.1698 5.66469 22.2499 5.75066ZM10.288 9.04999C10.4519 9.21406 10.5439 9.43645 10.5439 9.66833C10.5439 9.9002 10.4519 10.1226 10.288 10.2867C9.80034 10.7742 9.41347 11.353 9.14953 11.9901C8.88558 12.6272 8.74973 13.31 8.74973 13.9996C8.74973 14.6892 8.88558 15.372 9.14953 16.0091C9.41347 16.6461 9.80034 17.225 10.288 17.7125C10.4426 17.8784 10.5267 18.0978 10.5227 18.3244C10.5187 18.5511 10.4269 18.7674 10.2666 18.9277C10.1063 19.088 9.88999 19.1799 9.6633 19.1839C9.43662 19.1879 9.21723 19.1037 9.05136 18.9492C7.73871 17.6364 7.00127 15.856 7.00127 13.9996C7.00127 12.1431 7.73871 10.3627 9.05136 9.04999C9.21542 8.88614 9.43782 8.7941 9.66969 8.7941C9.90157 8.7941 10.124 8.88614 10.288 9.04999ZM18.9505 9.04999C20.2632 10.3627 21.0006 12.1431 21.0006 13.9996C21.0006 15.856 20.2632 17.6364 18.9505 18.9492C18.8698 19.0328 18.7733 19.0995 18.6666 19.1454C18.5599 19.1913 18.4451 19.2155 18.3289 19.2165C18.2127 19.2176 18.0975 19.1955 17.9899 19.1516C17.8824 19.1076 17.7846 19.0427 17.7024 18.9606C17.6202 18.8785 17.5552 18.7808 17.5112 18.6733C17.4671 18.5658 17.4449 18.4506 17.4459 18.3344C17.4468 18.2182 17.4709 18.1034 17.5167 17.9966C17.5625 17.8898 17.6292 17.7933 17.7127 17.7125C18.2002 17.225 18.5869 16.6462 18.8508 16.0093C19.1146 15.3723 19.2504 14.6896 19.2504 14.0002C19.2504 13.3107 19.1146 12.628 18.8508 11.9911C18.5869 11.3541 18.2002 10.7753 17.7127 10.2878C17.5581 10.122 17.474 9.90257 17.478 9.67588C17.482 9.4492 17.5738 9.23292 17.7341 9.0726C17.8944 8.91229 18.1107 8.82046 18.3374 8.81646C18.5641 8.81246 18.7835 8.8966 18.9494 9.05116L18.9505 9.04999ZM14.0004 12.2502C14.4645 12.2502 14.9096 12.4345 15.2378 12.7627C15.566 13.0909 15.7504 13.536 15.7504 14.0002C15.7504 14.4643 15.566 14.9094 15.2378 15.2376C14.9096 15.5658 14.4645 15.7502 14.0004 15.7502C13.5362 15.7502 13.0911 15.5658 12.7629 15.2376C12.4347 14.9094 12.2504 14.4643 12.2504 14.0002C12.2504 13.536 12.4347 13.0909 12.7629 12.7627C13.0911 12.4345 13.5362 12.2502 14.0004 12.2502Z" fill="#5459EA"/>
</g>
</svg>
