<svg width="24" height="25" viewBox="0 0 24 25" fill="none" xmlns="http://www.w3.org/2000/svg">
<path d="M12 19.0288C15.31 19.0288 18 16.3388 18 13.0288V8.02881C18 4.71881 15.31 2.02881 12 2.02881C8.69 2.02881 6 4.71881 6 8.02881V13.0288C6 16.3388 8.69 19.0288 12 19.0288Z" stroke="white" stroke-width="1.5" stroke-linecap="round" stroke-linejoin="round"/>
<path d="M3 11.0288V13.0288C3 17.9988 7.03 22.0288 12 22.0288C16.97 22.0288 21 17.9988 21 13.0288V11.0288" stroke="white" stroke-width="1.5" stroke-linecap="round" stroke-linejoin="round"/>
<path d="M9.10938 7.50898C10.8894 6.85898 12.8294 6.85898 14.6094 7.50898" stroke="white" stroke-width="1.5" stroke-linecap="round" stroke-linejoin="round"/>
<path d="M10.0293 10.5087C11.2293 10.1787 12.4993 10.1787 13.6993 10.5087" stroke="white" stroke-width="1.5" stroke-linecap="round" stroke-linejoin="round"/>
</svg>
