<svg width="25" height="24" viewBox="0 0 25 24" fill="none" xmlns="http://www.w3.org/2000/svg">
<g id="vuesax/bulk/moon">
<g id="moon">
<path id="Vector" d="M9.4909 18.9999C9.4909 19.8399 9.61976 20.6599 9.85766 21.4199C6.05128 20.0899 3.17668 16.5599 2.8793 12.4299C2.58193 8.03987 5.08977 3.93987 9.14396 2.21987C10.1947 1.77987 10.7299 2.09987 10.9579 2.32987C11.176 2.54987 11.4833 3.07987 11.0471 4.08987C10.6011 5.12987 10.383 6.22987 10.383 7.36987C10.3929 9.40987 11.1859 11.2999 12.4745 12.7499C10.6606 14.2099 9.4909 16.4699 9.4909 18.9999Z" fill="#292D32"/>
<path id="Vector_2" d="M21.5953 17.72C19.6326 20.41 16.5201 21.99 13.1994 21.99C13.0408 21.99 12.8822 21.98 12.7236 21.97C11.7324 21.93 10.7709 21.74 9.85895 21.42C9.62105 20.66 9.49219 19.84 9.49219 19C9.49219 16.47 10.6619 14.21 12.4758 12.75C13.933 14.4 16.0245 15.47 18.3341 15.57C18.9586 15.6 19.583 15.55 20.1976 15.44C21.3078 15.24 21.7539 15.66 21.9125 15.93C22.081 16.2 22.2594 16.79 21.5953 17.72Z" fill="#3366FF"/>
</g>
</g>
</svg>
