<svg width="20" height="20" viewBox="0 0 20 20" fill="none" xmlns="http://www.w3.org/2000/svg">
<g clip-path="url(#clip0_902_3895)">
<path d="M13.334 11.6666H14.584V14.0166L16.6173 15.1916L15.9923 16.2749L13.334 14.7416V11.6666ZM14.1673 9.99992C13.0622 9.99992 12.0024 10.4389 11.221 11.2203C10.4396 12.0017 10.0007 13.0615 10.0007 14.1666C10.0007 15.2717 10.4396 16.3315 11.221 17.1129C12.0024 17.8943 13.0622 18.3333 14.1673 18.3333C15.2724 18.3333 16.3322 17.8943 17.1136 17.1129C17.895 16.3315 18.334 15.2717 18.334 14.1666C18.334 13.0615 17.895 12.0017 17.1136 11.2203C16.3322 10.4389 15.2724 9.99992 14.1673 9.99992ZM14.1673 8.33325C15.7144 8.33325 17.1981 8.94783 18.2921 10.0418C19.3861 11.1358 20.0007 12.6195 20.0007 14.1666C20.0007 15.7137 19.3861 17.1974 18.2921 18.2914C17.1981 19.3853 15.7144 19.9999 14.1673 19.9999C11.8423 19.9999 9.83398 18.6333 8.89232 16.6666H0.833984V14.1666C0.833984 11.9499 5.27565 10.8333 7.50065 10.8333C8.00065 10.8333 8.61732 10.8916 9.26732 10.9999C9.79588 10.1811 10.5214 9.50793 11.3774 9.04205C12.2335 8.57618 13.1927 8.33247 14.1673 8.33325ZM8.33398 14.1666C8.33398 13.5833 8.41732 13.0166 8.57565 12.4999C8.22565 12.4416 7.85898 12.4166 7.50065 12.4166C5.02565 12.4166 2.41732 13.6333 2.41732 14.1666V15.0833H8.40898C8.35885 14.7803 8.33377 14.4737 8.33398 14.1666ZM7.50065 3.33325C8.38471 3.33325 9.23255 3.68444 9.85767 4.30956C10.4828 4.93468 10.834 5.78253 10.834 6.66659C10.834 7.55064 10.4828 8.39849 9.85767 9.02361C9.23255 9.64873 8.38471 9.99992 7.50065 9.99992C6.6166 9.99992 5.76875 9.64873 5.14363 9.02361C4.51851 8.39849 4.16732 7.55064 4.16732 6.66659C4.16732 5.78253 4.51851 4.93468 5.14363 4.30956C5.76875 3.68444 6.6166 3.33325 7.50065 3.33325ZM7.50065 4.91659C7.03652 4.91659 6.5914 5.10096 6.26321 5.42915C5.93503 5.75734 5.75065 6.20246 5.75065 6.66659C5.75065 7.13071 5.93503 7.57583 6.26321 7.90402C6.5914 8.23221 7.03652 8.41659 7.50065 8.41659C7.96478 8.41659 8.4099 8.23221 8.73809 7.90402C9.06628 7.57583 9.25065 7.13071 9.25065 6.66659C9.25065 6.20246 9.06628 5.75734 8.73809 5.42915C8.4099 5.10096 7.96478 4.91659 7.50065 4.91659Z" fill="white"/>
</g>
<defs>
<clipPath id="clip0_902_3895">
<rect width="20" height="20" fill="white"/>
</clipPath>
</defs>
</svg>
