<svg width="24" height="24" viewBox="0 0 24 24" fill="none" xmlns="http://www.w3.org/2000/svg">
<path d="M12.0614 2.91016C8.78043 2.91016 6.11399 5.60016 6.11399 8.91016V11.8002C6.11399 12.4102 5.85627 13.3402 5.54898 13.8602L4.40905 15.7702C3.70527 16.9502 4.19098 18.2602 5.47959 18.7002C9.75185 20.1402 14.3611 20.1402 18.6334 18.7002C19.8328 18.3002 20.3582 16.8702 19.7039 15.7702L18.564 13.8602C18.2666 13.3402 18.0089 12.4102 18.0089 11.8002V8.91016C18.0089 5.61016 15.3326 2.91016 12.0614 2.91016Z" stroke="#2E3A59" stroke-width="1.5" stroke-miterlimit="10" stroke-linecap="round"/>
<path d="M13.8981 3.19994C13.5908 3.10994 13.2736 3.03994 12.9465 2.99994C11.9949 2.87994 11.0829 2.94994 10.2305 3.19994C10.5179 2.45994 11.2316 1.93994 12.0643 1.93994C12.8969 1.93994 13.6106 2.45994 13.8981 3.19994Z" stroke="#2E3A59" stroke-width="1.5" stroke-miterlimit="10" stroke-linecap="round" stroke-linejoin="round"/>
<path d="M15.0373 19.0601C15.0373 20.7101 13.6991 22.0601 12.0636 22.0601C11.2508 22.0601 10.4974 21.7201 9.96214 21.1801C9.42687 20.6401 9.08984 19.8801 9.08984 19.0601" stroke="#2E3A59" stroke-width="1.5" stroke-miterlimit="10"/>
</svg>
