<svg width="40" height="40" viewBox="0 0 40 40" fill="none" xmlns="http://www.w3.org/2000/svg">
<g id="majesticons:door-exit">
<g id="Group">
<path id="Vector" fill-rule="evenodd" clip-rule="evenodd" d="M16.8973 3.02506C17.6438 2.80111 18.4324 2.75479 19.2 2.88978C19.9676 3.02476 20.693 3.33733 21.3183 3.80252C21.9437 4.26772 22.4516 4.87265 22.8016 5.56905C23.1515 6.26544 23.3339 7.034 23.334 7.81339V32.1867C23.3339 32.9661 23.1515 33.7347 22.8016 34.4311C22.4516 35.1275 21.9437 35.7324 21.3183 36.1976C20.693 36.6628 19.9676 36.9753 19.2 37.1103C18.4324 37.2453 17.6438 37.199 16.8973 36.9751L6.89732 33.9751C5.86749 33.6661 4.96467 33.0335 4.32279 32.1709C3.68091 31.3084 3.33416 30.2619 3.33398 29.1867V10.8134C3.33416 9.73822 3.68091 8.69174 4.32279 7.8292C4.96467 6.96665 5.86749 6.33399 6.89732 6.02506L16.8973 3.02506ZM25.0007 6.66672C25.0007 6.22469 25.1762 5.80077 25.4888 5.48821C25.8014 5.17565 26.2253 5.00006 26.6673 5.00006H31.6673C32.9934 5.00006 34.2652 5.52684 35.2029 6.46452C36.1405 7.4022 36.6673 8.67397 36.6673 10.0001V11.6667C36.6673 12.1088 36.4917 12.5327 36.1792 12.8452C35.8666 13.1578 35.4427 13.3334 35.0007 13.3334C34.5586 13.3334 34.1347 13.1578 33.8221 12.8452C33.5096 12.5327 33.334 12.1088 33.334 11.6667V10.0001C33.334 9.55803 33.1584 9.13411 32.8458 8.82154C32.5333 8.50898 32.1093 8.33339 31.6673 8.33339H26.6673C26.2253 8.33339 25.8014 8.15779 25.4888 7.84523C25.1762 7.53267 25.0007 7.10875 25.0007 6.66672ZM35.0007 26.6667C35.4427 26.6667 35.8666 26.8423 36.1792 27.1549C36.4917 27.4674 36.6673 27.8914 36.6673 28.3334V30.0001C36.6673 31.3261 36.1405 32.5979 35.2029 33.5356C34.2652 34.4733 32.9934 35.0001 31.6673 35.0001H26.6673C26.2253 35.0001 25.8014 34.8245 25.4888 34.5119C25.1762 34.1993 25.0007 33.7754 25.0007 33.3334C25.0007 32.8914 25.1762 32.4674 25.4888 32.1549C25.8014 31.8423 26.2253 31.6667 26.6673 31.6667H31.6673C32.1093 31.6667 32.5333 31.4911 32.8458 31.1786C33.1584 30.866 33.334 30.4421 33.334 30.0001V28.3334C33.334 27.8914 33.5096 27.4674 33.8221 27.1549C34.1347 26.8423 34.5586 26.6667 35.0007 26.6667ZM15.0007 18.3334C14.5586 18.3334 14.1347 18.509 13.8221 18.8215C13.5096 19.1341 13.334 19.558 13.334 20.0001C13.334 20.4421 13.5096 20.866 13.8221 21.1786C14.1347 21.4911 14.5586 21.6667 15.0007 21.6667H15.0023C15.4443 21.6667 15.8683 21.4911 16.1808 21.1786C16.4934 20.866 16.669 20.4421 16.669 20.0001C16.669 19.558 16.4934 19.1341 16.1808 18.8215C15.8683 18.509 15.4443 18.3334 15.0023 18.3334H15.0007Z" fill="#292D32"/>
<path id="Vector_2" d="M35.0013 20.0001L31.668 23.3334M26.668 20.0001H35.0013H26.668ZM35.0013 20.0001L31.668 16.6667L35.0013 20.0001Z" stroke="#3366FF" stroke-width="3.33333" stroke-linecap="round" stroke-linejoin="round"/>
</g>
</g>
</svg>
