<svg width="24" height="25" viewBox="0 0 24 25" fill="none" xmlns="http://www.w3.org/2000/svg">
<g id="vuesax/linear/ruler&#38;pen">
<g id="ruler&#38;pen">
<path id="Vector" d="M21.4687 19.0288V5.02881C21.4687 3.02881 20.4687 2.02881 18.4687 2.02881H14.4688C12.4688 2.02881 11.4688 3.02881 11.4688 5.02881V19.0288C11.4688 21.0288 12.4688 22.0288 14.4688 22.0288H18.4687C20.4687 22.0288 21.4687 21.0288 21.4687 19.0288Z" stroke="white" stroke-width="1.5" stroke-linecap="round"/>
<path id="Vector_2" d="M11.4688 6.02881H16.4687" stroke="white" stroke-width="1.5" stroke-linecap="round"/>
<path id="Vector_3" d="M11.4688 18.0288H15.4688" stroke="white" stroke-width="1.5" stroke-linecap="round"/>
<path id="Vector_4" d="M11.4688 13.9788L16.4687 14.0288" stroke="white" stroke-width="1.5" stroke-linecap="round"/>
<path id="Vector_5" d="M11.4688 10.0288H14.4688" stroke="white" stroke-width="1.5" stroke-linecap="round"/>
<path id="Vector_6" d="M5.4893 2.02881C3.8593 2.02881 2.5293 3.35881 2.5293 4.97881V17.9388C2.5293 18.3888 2.7193 19.0688 2.9493 19.4588L3.7693 20.8188C4.7093 22.3888 6.2593 22.3888 7.1993 20.8188L8.0193 19.4588C8.2493 19.0688 8.4393 18.3888 8.4393 17.9388V4.97881C8.4393 3.35881 7.1093 2.02881 5.4893 2.02881Z" stroke="white" stroke-width="1.5" stroke-linecap="round"/>
<path id="Vector_7" d="M8.4393 7.02881H2.5293" stroke="white" stroke-width="1.5" stroke-linecap="round"/>
</g>
</g>
</svg>
