<svg width="44" height="19" viewBox="0 0 44 19" fill="none" xmlns="http://www.w3.org/2000/svg">
<g id="Group 10961">
<g id="edit">
<path id="Vector" d="M8.16602 1.20947H6.49935C2.33268 1.20947 0.666016 2.87614 0.666016 7.04281V12.0428C0.666016 16.2095 2.33268 17.8761 6.49935 17.8761H11.4993C15.666 17.8761 17.3327 16.2095 17.3327 12.0428V10.3761" stroke="#5F66E9" stroke-linecap="round" stroke-linejoin="round"/>
<path id="Vector_2" d="M12.3656 2.05936L5.79892 8.62602C5.54892 8.87602 5.29892 9.36769 5.24892 9.72602L4.89059 12.2344C4.75726 13.1427 5.39892 13.776 6.30726 13.651L8.81559 13.2927C9.16559 13.2427 9.65726 12.9927 9.91559 12.7427L16.4823 6.17602C17.6156 5.04269 18.1489 3.72602 16.4823 2.05936C14.8156 0.392691 13.4989 0.926024 12.3656 2.05936Z" stroke="#5F66E9" stroke-miterlimit="10" stroke-linecap="round" stroke-linejoin="round"/>
<path id="Vector_3" d="M11.4238 3.00098C11.9822 4.99264 13.5405 6.55098 15.5405 7.11764" stroke="#5F66E9" stroke-miterlimit="10" stroke-linecap="round" stroke-linejoin="round"/>
</g>
<g id="Group">
<path id="Vector_4" d="M36.1872 1C36.8792 0.999955 37.5449 1.26471 38.0479 1.73995C38.5509 2.21518 38.853 2.86488 38.8921 3.55576L38.8963 3.70914H43.2726C43.431 3.70918 43.5835 3.76936 43.6992 3.8775C43.815 3.98563 43.8854 4.13368 43.8962 4.29171C43.9069 4.44974 43.8574 4.60598 43.7574 4.72885C43.6574 4.85173 43.5146 4.93208 43.3576 4.95367L43.2726 4.95951H42.6091L41.5421 15.8127C41.4886 16.3538 41.2446 16.8583 40.8535 17.236C40.4625 17.6138 39.9499 17.8403 39.4073 17.875L39.2606 17.88H33.1138C32.5698 17.88 32.0436 17.6865 31.6292 17.3342C31.2147 16.982 30.9391 16.4938 30.8514 15.9569L30.8323 15.8119L29.7644 4.95951H29.1017C28.9507 4.9595 28.8047 4.90479 28.6909 4.80549C28.577 4.70619 28.5029 4.56902 28.4824 4.41935L28.4766 4.33432C28.4766 4.18324 28.5313 4.03728 28.6306 3.92342C28.7299 3.80957 28.8671 3.73552 29.0167 3.71497L29.1017 3.70914H33.478C33.478 2.99063 33.7635 2.30155 34.2715 1.79349C34.7796 1.28543 35.4687 1 36.1872 1ZM41.3529 4.95951H31.0206L32.0768 15.6894C32.1002 15.9288 32.2057 16.1527 32.3754 16.3232C32.5451 16.4937 32.7686 16.6002 33.0079 16.6246L33.1138 16.6296H39.2606C39.7607 16.6296 40.185 16.2754 40.2817 15.7944L40.2984 15.6894L41.352 4.95951H41.3529ZM37.6459 7.25185C37.797 7.25186 37.943 7.30657 38.0568 7.40587C38.1707 7.50517 38.2447 7.64234 38.2653 7.79201L38.2711 7.87704V13.7121C38.2711 13.8705 38.2109 14.023 38.1028 14.1387C37.9946 14.2545 37.8466 14.3248 37.6886 14.3356C37.5305 14.3464 37.3743 14.2968 37.2514 14.1969C37.1285 14.0969 37.0482 13.954 37.0266 13.7971L37.0208 13.7121V7.87704C37.0208 7.71123 37.0866 7.55221 37.2039 7.43496C37.3211 7.31772 37.4801 7.25185 37.6459 7.25185ZM34.7284 7.25185C34.8795 7.25186 35.0255 7.30657 35.1393 7.40587C35.2532 7.50517 35.3272 7.64234 35.3478 7.79201L35.3536 7.87704V13.7121C35.3536 13.8705 35.2934 14.023 35.1852 14.1387C35.0771 14.2545 34.9291 14.3248 34.771 14.3356C34.613 14.3464 34.4568 14.2968 34.3339 14.1969C34.211 14.0969 34.1307 13.954 34.1091 13.7971L34.1032 13.7121V7.87704C34.1032 7.71123 34.1691 7.55221 34.2863 7.43496C34.4036 7.31772 34.5626 7.25185 34.7284 7.25185ZM36.1872 2.25037C35.8211 2.25038 35.4684 2.38805 35.1991 2.63605C34.9298 2.88405 34.7635 3.22424 34.7334 3.5891L34.7284 3.70914H37.6459C37.6459 3.32225 37.4923 2.9512 37.2187 2.67763C36.9451 2.40406 36.5741 2.25037 36.1872 2.25037Z" fill="#5F66E9"/>
</g>
</g>
</svg>
