<svg width="20" height="20" viewBox="0 0 20 20" fill="none" xmlns="http://www.w3.org/2000/svg">
<g id="Group 10961">
<g id="edit">
<path id="Vector" d="M8.99949 1.22363H7.22182C2.77766 1.22363 1 3.0013 1 7.44546V12.7784C1 17.2226 2.77766 19.0003 7.22182 19.0003H12.5548C16.999 19.0003 18.7766 17.2226 18.7766 12.7784V11.0008" stroke="#5F66E9" stroke-linecap="round" stroke-linejoin="round"/>
<path id="Vector_2" d="M13.4798 2.12991L6.47582 9.1339C6.20917 9.40055 5.94252 9.92496 5.88919 10.3072L5.50699 12.9825C5.36478 13.9514 6.04918 14.6269 7.01801 14.4936L9.69339 14.1114C10.0667 14.058 10.5911 13.7914 10.8666 13.5247L17.8706 6.52074C19.0795 5.31193 19.6483 3.90757 17.8706 2.12991C16.093 0.352245 14.6886 0.921098 13.4798 2.12991Z" stroke="#5F66E9" stroke-miterlimit="10" stroke-linecap="round" stroke-linejoin="round"/>
<path id="Vector_3" d="M12.4766 3.13428C13.0721 5.25859 14.7342 6.9207 16.8674 7.52511" stroke="#5F66E9" stroke-miterlimit="10" stroke-linecap="round" stroke-linejoin="round"/>
</g>
</g>
</svg>
