<svg width="557" height="206" viewBox="0 0 557 206" fill="none" xmlns="http://www.w3.org/2000/svg">
<circle cx="346" cy="89" r="5.5" fill="#00D68F" stroke="white"/>
<rect width="556" height="1" fill="#F0F0F0"/>
<rect y="82" width="556" height="1" fill="#F0F0F0"/>
<rect y="164" width="556" height="1" fill="#F0F0F0"/>
<rect y="41" width="556" height="1" fill="#F0F0F0"/>
<rect y="123" width="556" height="1" fill="#F0F0F0"/>
<rect y="205" width="556" height="1" fill="#F0F0F0"/>
<path d="M1 164.977C1 164.977 80.9488 167.209 154.385 127.486C331.822 31.5076 328.751 168.269 412.599 143.482C482.197 122.908 556 65 556 65" stroke="#3366FF" stroke-width="2" stroke-linecap="round"/>
<path d="M1 165C1 165 95.4352 92.4718 162.856 92.2955C210.579 92.1708 245.591 159.887 291.216 145.99C338.193 131.68 335.704 73.9689 382.916 60.4435C421.291 49.4496 445.901 82.7623 485.216 78.8502C535.261 73.8704 556 42 556 42" stroke="#00D68F" stroke-width="2" stroke-linecap="round"/>
<g filter="url(#filter0_b_1347_334)">
<rect x="351" y="47" width="50" height="36" rx="4" fill="#2E3A59" fill-opacity="0.4"/>
</g>
<path d="M368.668 64.112C367.977 64.112 367.305 64.0047 366.652 63.79C366.008 63.5753 365.481 63.286 365.07 62.922L365.714 61.816C366.041 62.124 366.465 62.376 366.988 62.572C367.511 62.768 368.071 62.866 368.668 62.866C369.396 62.866 369.961 62.712 370.362 62.404C370.773 62.0867 370.978 61.662 370.978 61.13C370.978 60.6167 370.782 60.206 370.39 59.898C370.007 59.5807 369.396 59.422 368.556 59.422H367.772V58.442L370.684 54.858L370.88 55.418H365.518V54.2H371.986V55.152L369.088 58.722L368.36 58.288H368.822C370.007 58.288 370.894 58.554 371.482 59.086C372.079 59.618 372.378 60.2947 372.378 61.116C372.378 61.6667 372.243 62.1707 371.972 62.628C371.701 63.0853 371.291 63.4493 370.74 63.72C370.199 63.9813 369.508 64.112 368.668 64.112ZM374.608 64.084C374.346 64.084 374.122 63.9953 373.936 63.818C373.749 63.6313 373.656 63.398 373.656 63.118C373.656 62.838 373.749 62.6093 373.936 62.432C374.122 62.2547 374.346 62.166 374.608 62.166C374.86 62.166 375.074 62.2547 375.252 62.432C375.438 62.6093 375.532 62.838 375.532 63.118C375.532 63.398 375.438 63.6313 375.252 63.818C375.074 63.9953 374.86 64.084 374.608 64.084ZM380.696 64.112C379.93 64.112 379.244 63.916 378.638 63.524C378.04 63.132 377.564 62.5627 377.21 61.816C376.864 61.0693 376.692 60.164 376.692 59.1C376.692 58.036 376.864 57.1307 377.21 56.384C377.564 55.6373 378.04 55.068 378.638 54.676C379.244 54.284 379.93 54.088 380.696 54.088C381.452 54.088 382.133 54.284 382.74 54.676C383.346 55.068 383.822 55.6373 384.168 56.384C384.513 57.1307 384.686 58.036 384.686 59.1C384.686 60.164 384.513 61.0693 384.168 61.816C383.822 62.5627 383.346 63.132 382.74 63.524C382.133 63.916 381.452 64.112 380.696 64.112ZM380.696 62.866C381.209 62.866 381.657 62.726 382.04 62.446C382.432 62.166 382.735 61.746 382.95 61.186C383.174 60.626 383.286 59.9307 383.286 59.1C383.286 58.2693 383.174 57.574 382.95 57.014C382.735 56.454 382.432 56.034 382.04 55.754C381.657 55.474 381.209 55.334 380.696 55.334C380.182 55.334 379.73 55.474 379.338 55.754C378.946 56.034 378.638 56.454 378.414 57.014C378.199 57.574 378.092 58.2693 378.092 59.1C378.092 59.9307 378.199 60.626 378.414 61.186C378.638 61.746 378.946 62.166 379.338 62.446C379.73 62.726 380.182 62.866 380.696 62.866Z" fill="white"/>
<path d="M361.464 77V68.6H364.476C365.18 68.6 365.784 68.712 366.288 68.936C366.792 69.16 367.18 69.484 367.452 69.908C367.724 70.324 367.86 70.832 367.86 71.432C367.86 72.016 367.724 72.52 367.452 72.944C367.18 73.368 366.792 73.692 366.288 73.916C365.784 74.14 365.18 74.252 364.476 74.252H361.8L362.076 73.964V77H361.464ZM362.076 74L361.8 73.7H364.476C365.38 73.7 366.064 73.504 366.528 73.112C367 72.712 367.236 72.152 367.236 71.432C367.236 70.704 367 70.144 366.528 69.752C366.064 69.352 365.38 69.152 364.476 69.152H361.8L362.076 68.852V74ZM372.146 77.048C371.546 77.048 371.01 76.912 370.538 76.64C370.074 76.368 369.702 75.992 369.422 75.512C369.15 75.032 369.014 74.484 369.014 73.868C369.014 73.244 369.15 72.696 369.422 72.224C369.702 71.744 370.074 71.368 370.538 71.096C371.01 70.824 371.546 70.688 372.146 70.688C372.746 70.688 373.282 70.824 373.754 71.096C374.226 71.368 374.598 71.744 374.87 72.224C375.142 72.696 375.278 73.244 375.278 73.868C375.278 74.484 375.142 75.032 374.87 75.512C374.598 75.992 374.226 76.368 373.754 76.64C373.282 76.912 372.746 77.048 372.146 77.048ZM372.146 76.508C372.626 76.508 373.058 76.4 373.442 76.184C373.826 75.96 374.126 75.648 374.342 75.248C374.558 74.848 374.666 74.388 374.666 73.868C374.666 73.34 374.558 72.88 374.342 72.488C374.126 72.088 373.826 71.78 373.442 71.564C373.058 71.34 372.626 71.228 372.146 71.228C371.666 71.228 371.234 71.34 370.85 71.564C370.474 71.78 370.174 72.088 369.95 72.488C369.734 72.88 369.626 73.34 369.626 73.868C369.626 74.388 369.734 74.848 369.95 75.248C370.174 75.648 370.474 75.96 370.85 76.184C371.234 76.4 371.666 76.508 372.146 76.508ZM377.139 77V70.736H377.739V77H377.139ZM377.439 69.212C377.303 69.212 377.187 69.164 377.091 69.068C376.995 68.972 376.947 68.86 376.947 68.732C376.947 68.596 376.995 68.48 377.091 68.384C377.187 68.288 377.303 68.24 377.439 68.24C377.583 68.24 377.699 68.288 377.787 68.384C377.883 68.472 377.931 68.584 377.931 68.72C377.931 68.856 377.883 68.972 377.787 69.068C377.699 69.164 377.583 69.212 377.439 69.212ZM383.328 70.688C383.84 70.688 384.284 70.788 384.66 70.988C385.044 71.18 385.34 71.476 385.548 71.876C385.764 72.268 385.872 72.756 385.872 73.34V77H385.272V73.388C385.272 72.684 385.092 72.148 384.732 71.78C384.38 71.412 383.884 71.228 383.244 71.228C382.756 71.228 382.332 71.328 381.972 71.528C381.612 71.728 381.336 72.008 381.144 72.368C380.96 72.728 380.868 73.16 380.868 73.664V77H380.268V70.736H380.844V72.476L380.76 72.284C380.952 71.788 381.268 71.4 381.708 71.12C382.148 70.832 382.688 70.688 383.328 70.688ZM390.166 77.048C389.614 77.048 389.19 76.896 388.894 76.592C388.606 76.288 388.462 75.872 388.462 75.344V69.368H389.062V75.284C389.062 75.684 389.162 75.992 389.362 76.208C389.562 76.424 389.85 76.532 390.226 76.532C390.618 76.532 390.942 76.416 391.198 76.184L391.45 76.604C391.29 76.756 391.094 76.868 390.862 76.94C390.638 77.012 390.406 77.048 390.166 77.048ZM387.31 71.252V70.736H391.054V71.252H387.31Z" fill="white"/>
<defs>
<filter id="filter0_b_1347_334" x="343" y="39" width="66" height="52" filterUnits="userSpaceOnUse" color-interpolation-filters="sRGB">
<feFlood flood-opacity="0" result="BackgroundImageFix"/>
<feGaussianBlur in="BackgroundImageFix" stdDeviation="4"/>
<feComposite in2="SourceAlpha" operator="in" result="effect1_backgroundBlur_1347_334"/>
<feBlend mode="normal" in="SourceGraphic" in2="effect1_backgroundBlur_1347_334" result="shape"/>
</filter>
</defs>
</svg>
