<svg width="24" height="24" viewBox="0 0 24 24" fill="none" xmlns="http://www.w3.org/2000/svg">
<g id="Group 10962">
<path id="Vector" d="M4.37325 15.3232L10.1479 9.53308L7.55939 6.93767C7.41668 6.79452 7.3195 6.61215 7.28014 6.41363C7.24078 6.2151 7.26101 6.00934 7.33827 5.82234C7.41553 5.63534 7.54634 5.47551 7.71418 5.36305C7.88202 5.25058 8.07935 5.19054 8.28121 5.19051L17.7891 5.19051C18.0598 5.19055 18.3194 5.29839 18.5108 5.4903C18.7022 5.68222 18.8097 5.9425 18.8098 6.21391L18.8098 15.7473C18.8097 15.9497 18.7498 16.1476 18.6377 16.3159C18.5255 16.4841 18.3661 16.6153 18.1796 16.6928C17.9931 16.7702 17.7879 16.7905 17.5899 16.7511C17.3919 16.7116 17.21 16.6142 17.0673 16.4711L14.4788 13.8757L8.7042 19.6657C8.51276 19.8577 8.25311 19.9655 7.98238 19.9655C7.71164 19.9655 7.45199 19.8577 7.26055 19.6657L4.37325 16.7707C4.18181 16.5787 4.07426 16.3184 4.07426 16.0469C4.07426 15.7755 4.18181 15.5151 4.37325 15.3232Z" stroke="#FF333F" stroke-width="1.5" stroke-linecap="round" stroke-linejoin="round"/>
</g>
</svg>
