<svg width="24" height="24" viewBox="0 0 24 24" fill="none" xmlns="http://www.w3.org/2000/svg">
<g id="Group 10961">
<path id="Vector" d="M19.6656 8.38532L13.8755 14.1754L16.4709 16.7708C16.614 16.914 16.7115 17.0963 16.7509 17.2949C16.7904 17.4934 16.7701 17.6992 16.6926 17.8862C16.6152 18.0732 16.484 18.233 16.3157 18.3455C16.1474 18.4579 15.9496 18.518 15.7472 18.518H6.21377C5.94236 18.5179 5.68208 18.4101 5.49017 18.2182C5.29825 18.0263 5.19041 17.766 5.19037 17.4946L5.19037 7.96119C5.1904 7.75879 5.25045 7.56093 5.36291 7.39264C5.47537 7.22435 5.6352 7.09319 5.8222 7.01572C6.0092 6.93826 6.21497 6.91797 6.41349 6.95744C6.61201 6.9969 6.79438 7.09434 6.93753 7.23743L9.53295 9.83284L15.323 4.04275C15.515 3.85079 15.7753 3.74296 16.0468 3.74296C16.3183 3.74296 16.5786 3.85079 16.7706 4.04275L19.6656 6.93779C19.8576 7.12975 19.9654 7.39009 19.9654 7.66156C19.9654 7.93302 19.8576 8.19337 19.6656 8.38532Z" stroke="#5F66E9" stroke-width="1.5" stroke-linecap="round" stroke-linejoin="round"/>
</g>
</svg>
