<svg width="50" height="54" viewBox="0 0 50 54" fill="none" xmlns="http://www.w3.org/2000/svg">
<g id="Group 10991">
<path id="Vector" d="M24.9893 0C17.3093 0 11.0312 6.27803 11.0312 13.958C11.0312 21.6381 17.3093 27.9161 24.9893 27.9161C32.6693 27.9161 38.9473 21.6381 38.9473 13.958C38.9473 6.27803 32.6693 0 24.9893 0Z" fill="white"/>
<path id="Vector_2" d="M48.9432 39.0703C48.5774 38.156 48.0899 37.3027 47.5413 36.5103C44.7375 32.3655 40.41 29.6227 35.5338 28.9522C34.9243 28.8913 34.2539 29.0131 33.7662 29.3788C31.2062 31.2683 28.1586 32.2436 24.9891 32.2436C21.8195 32.2436 18.7719 31.2683 16.2119 29.3788C15.7243 29.0131 15.0538 28.8303 14.4443 28.9522C9.56813 29.6227 5.17962 32.3655 2.4368 36.5103C1.88824 37.3027 1.40057 38.217 1.03494 39.0703C0.852124 39.436 -0.160847 41.4397 0.0219684 41.8055C0.509633 42.6588 0.547276 42.4642 1.09584 43.1955C1.94914 44.3537 3.79818 45.6424 4.83441 46.6176C5.68771 47.4709 7.24049 48.4222 8.14276 49.0237C12.9579 52.6199 18.9549 53.7597 24.9282 53.7597C30.9015 53.7597 37.0126 52.6198 41.8278 49.0237C42.803 48.2923 43.982 47.7717 44.8354 46.9184C45.8106 45.9432 47.2903 45.0688 48.1437 43.9108C48.7532 43.1184 49.4605 42.6588 49.9481 41.8055C50.2527 41.4397 49.126 39.4359 48.9432 39.0703Z" fill="white"/>
</g>
</svg>
